<svg fill="none" height="40" viewBox="0 0 136 40" width="136" xmlns="http://www.w3.org/2000/svg" xmlns:xlink="http://www.w3.org/1999/xlink"><clipPath id="a"><path d="m0 0h135.857v40h-135.857z"/></clipPath><g clip-path="url(#a)" fill="#fff"><path d="m52.4692 27.126c-.5179.034-1.0245-.1556-1.3896-.5235-.3396-.3991-.5122-.9113-.4839-1.4349v-14.5917c0-.6736-.549-1.2198-1.2226-1.22263h-3.2064l-.0057 15.80583c0 1.7999.4924 3.164 1.4773 4.0895.9849.9254 2.3942 1.3895 4.2281 1.3895.6679.0028 1.333-.0792 1.981-.2405.5774-.1359 1.1207-.3821 1.6018-.7245-1.0584-2.8301-1.3527-2.5471-2.98-2.5471z"/><path d="m67.426 15.9276c-2.7253-1.3471-5.9204-1.3471-8.6458 0-1.2396.6367-2.2754 1.6046-2.9942 2.7961-.7273 1.2254-1.1009 2.6319-1.0782 4.0583-.0227 1.4263.3509 2.8328 1.0782 4.0611.7188 1.1914 1.7546 2.1593 2.9942 2.7961 1.3386.6849 2.8272 1.033 4.33 1.0075 1.4999.0255 2.9829-.3198 4.3158-1.0075 1.2339-.6396 2.2641-1.6075 2.9801-2.7961.7273-1.2283 1.1009-2.6348 1.0782-4.0611.0227-1.4264-.3509-2.8329-1.0782-4.0583-.716-1.1887-1.7462-2.1565-2.9801-2.7961zm-1.5197 9.9363c-.7245.7669-1.7433 1.183-2.7961 1.149-1.0584.0311-2.0773-.3849-2.8102-1.149-.7387-.767-1.1094-1.7943-1.1094-3.0819 0-1.2877.3707-2.3122 1.1094-3.0791.7329-.7642 1.7518-1.1802 2.8102-1.149 1.0556-.0368 2.0773.382 2.8017 1.149.7217.7641 1.084 1.7914 1.0868 3.0791.0028 1.2876-.3623 2.3149-1.0924 3.0819z"/><path d="m132.953 15.4833c-.798 0-1.76.4754-2.06 1.2141l-3.642 8.9486-3.64-8.9458c-.303-.7386-1.265-1.2141-2.06-1.2141h-2.904l6.272 14.9342h4.664l6.274-14.937z"/><path d="m115.591 27.126c-.518.034-1.025-.1584-1.393-.5235-.345-.4189-.518-.9509-.481-1.4915v-6.2261h3.079v-3.396h-3.079v-2.5471c-.028-.6566-.566-1.1745-1.222-1.1745h-3.207v13.4003c0 1.8.493 3.164 1.475 4.0895.982.9254 2.394 1.3895 4.231 1.3895.667.0029 1.333-.0764 1.981-.2405.577-.1359 1.12-.3821 1.604-.7245-1.069-2.8471-1.364-2.5556-2.988-2.5556z"/><path d="m102.955 25.8894c-.538.515-.827 1.2367-.796 1.981-.019.7415.269 1.4575.796 1.981.515.5236 1.222.8123 1.958.7953v.0056h.102c1.5-.0367 2.686-1.282 2.652-2.7819.034-.7443-.258-1.466-.796-1.981-1.112-1.0047-2.804-1.0047-3.916 0z"/><path d="m85.6346 15.9332c-2.7225-1.3471-5.9204-1.3471-8.6429 0-1.2396.6367-2.2782 1.6046-2.9971 2.7961-.7273 1.2254-1.1009 2.6319-1.0782 4.0583-.0227 1.4263.3509 2.8329 1.0782 4.0611.7189 1.1915 1.7575 2.1593 2.9971 2.7961 1.3386.6849 2.8272 1.033 4.3299 1.0075v-.0057c1.4971.0283 2.9801-.3169 4.313-1.0018 1.2339-.6396 2.2641-1.6075 2.9829-2.7961.7274-1.2282 1.1009-2.6348 1.0783-4.0611.0226-1.4264-.3509-2.8329-1.0783-4.0583-.7188-1.1886-1.749-2.1565-2.9829-2.7961zm-1.5169 9.9363c-.7245.767-1.7433 1.183-2.7961 1.149v-.0057c-1.0556.034-2.0772-.382-2.8102-1.1433-.7386-.7669-1.1066-1.7943-1.1094-3.0819-.0028-1.2877.3679-2.3122 1.1094-3.0791 1.5537-1.5311 4.0526-1.5311 5.6063 0 .7274.7641 1.0924 1.7914 1.0924 3.0791 0 1.2876-.365 2.315-1.0924 3.0819z"/><path d="m97.6511 27.126c-.5179.034-1.0245-.1556-1.3924-.5235-.3452-.416-.5179-.9509-.4839-1.4915v-6.2261h3.0763v-3.396h-3.082v-2.5471c-.0283-.6537-.5632-1.1716-1.2197-1.1745h-3.2093v13.406c0 1.7999.4924 3.164 1.4773 4.0894.9848.9255 2.3942 1.3896 4.2281 1.3896.6679.0028 1.3329-.0764 1.981-.2406.5774-.1358 1.1205-.382 1.6015-.7245v-.0056c-1.0581-2.8471-1.3524-2.5556-2.9769-2.5556z"/><path d="m27.7148 4.00455c-6.1639-3.554552-12.3212-3.556439-18.47181-.00566-6.15065 3.55077-9.2316387 8.88071-9.24295892 15.98981-.01132018 7.1091 3.06966892 12.4456 9.24295892 16.0096 6.17331 3.564 12.33051 3.564 18.47181 0 6.1412-3.564 9.2193-8.8967 9.2344-15.9983.0151-7.1015-3.063-12.43336-9.2344-15.99545zm-14.1701 25.25825c-3.2489-.9509-3.2489-17.5464 0-18.5086 3.2489-.95087 15.5002 6.0252 15.5002 9.2543s-12.2513 10.2052-15.5002 9.2543z"/></g></svg>